# 
# Wavefront OBJ file
# Converted by the DEEP Exploration Deep Exploration 5 5.0.6.1889 Release
# Right Hemisphere, LTD
# http://www.righthemisphere.com/
# 
mtllib Box2.mtl
# object box
g box
v 1.00000 1.00000 1.00000
v 1.00000 1.00000 0.00000
v 0.00000 1.00000 0.00000
v 0.00000 1.00000 1.00000
v 1.00000 0.00000 1.00000
v 0.00000 0.00000 1.00000
v 0.00000 0.00000 0.00000
v 1.00000 0.00000 0.00000
# 8 verticies
vt 0.26500 0.67500
vt 0.49000 0.97500
vt 0.26500 0.97500
vt 0.49000 0.67500
vt 0.26500 0.35000
vt 0.49000 0.65000
vt 0.26500 0.65000
vt 0.49000 0.35000
vt 0.73500 0.35000
vt 0.51000 0.65000
vt 0.51000 0.35000
vt 0.73500 0.65000
vt 0.75500 0.35000
vt 0.98000 0.65000
vt 0.75500 0.65000
vt 0.98000 0.35000
vt 0.02000 0.65000
vt 0.24500 0.35000
vt 0.24500 0.65000
vt 0.02000 0.35000
vt 0.49000 0.32500
vt 0.26500 0.02500
vt 0.49000 0.02500
vt 0.26500 0.32500
# 24 texture verticies
vn 0.00000 1.00000 0.00000
vn 0.00000 0.00000 1.00000
vn 1.00000 0.00000 0.00000
vn 0.00000 0.00000 -1.00000
vn -1.00000 0.00000 0.00000
vn 0.00000 -1.00000 0.00000
# 6 normals
usemtl default
f  4/1/1 2/2/1 3/3/1
f  4/1/1 1/4/1 2/2/1
f  6/5/2 1/6/2 4/7/2
f  6/5/2 5/8/2 1/6/2
f  8/9/3 1/10/3 5/11/3
f  8/9/3 2/12/3 1/10/3
f  8/13/4 3/14/4 2/15/4
f  8/13/4 7/16/4 3/14/4
f  3/17/5 6/18/5 4/19/5
f  3/17/5 7/20/5 6/18/5
f  5/21/6 7/22/6 8/23/6
f  5/21/6 6/24/6 7/22/6
