mtllib Dodecahedron.mtl
# object Dodecahedron
g Dodecahedron
v 0.5 -0.178975 -7.82324e-009
v 0.306612 -0.306612 0.306612
v 0 -0.5 0.178975
v 0 -0.5 -0.178975
v 0.306612 -0.306612 -0.306612
v -0.306612 -0.306612 -0.306612
v -0.178975 2.18557e-008 -0.5
v 0.178975 2.18557e-008 -0.5
v 0.306612 0.306612 -0.306612
v 0.5 0.178975 7.82324e-009
v 0.306612 0.306612 0.306612
v 0.178975 -2.18557e-008 0.5
v -0.178975 -2.18557e-008 0.5
v -0.306612 -0.306612 0.306612
v -0.5 -0.178975 -7.82324e-009
v -0.5 0.178975 7.82324e-009
v -0.306612 0.306612 -0.306612
v 0 0.5 -0.178975
v 0 0.5 0.178975
v -0.306612 0.306612 0.306612
# 20 verticies
vt 0.7 0.249205
vt 0.6 0.640067
vt 0.6 0.359933
vt 0.7 0.750795
vt 0.756234 0.5
vt 0.8 1
vt 0.9 0.750795
vt 0.843766 0.5
vt 0.8 0
vt 0.9 0.249205
vt 0.4 0
vt 0.5 0.249205
vt 0.5 0.750795
vt 0.443766 0.5
vt 0.4 1
vt 0 1
vt 0.3 0.750795
vt 0.1 0.750795
vt 0.2 0.640067
vt 0.356234 0.5
vt 0.3 0.249205
vt 0.2 0.359933
vt 0.1 0.249205
vt 0 0
vt 1 0.640067
vt 1 0.359933
# 26 texture verticies
vn 0.539292 -0.842119 -2.72238e-008
vn 0.533478 -0.845814 -2.05531e-008
vn 0.533478 -0.845814 0
vn 0.54219 -0.840256 -4.0836e-008
vn 0.550843 -0.834609 -4.05615e-008
vn 0.843181 0.00152454 0.537627
vn 0.841857 0.00228685 0.539696
vn 0.843425 0.0123345 0.537106
vn 0.843023 -0.00388062 0.537864
vn 0.845814 -2.33191e-008 0.533478
vn 0.843181 -0.00152454 -0.537627
vn 0.841857 -0.00228685 -0.539696
vn 0.843425 -0.0123345 -0.537106
vn 0.843023 0.00388062 -0.537864
vn 0.843425 -0.537106 -0.0123347
vn 0 -0.834609 0.550844
vn 0 -0.533478 -0.845814
vn 0 -0.54219 -0.840256
vn 0 -0.550843 -0.834609
vn -0.533478 0 0.845814
vn -0.533478 -0.845814 -2.05531e-008
vn -0.539292 -0.842119 -2.72238e-008
vn -0.54219 -0.840256 -4.0836e-008
vn -0.550843 -0.834609 -4.05615e-008
vn -0.0123347 0.843425 0.537106
vn 0 -0.54219 0.840256
vn 0 -0.533478 0.845814
vn 0 0.533478 0.845814
vn -0.0123347 0.843425 -0.537106
vn 0 0.539292 0.842119
vn 0 0.54219 0.840256
vn 0 0.550843 0.834609
vn -0.843425 0.537106 0.0123347
vn -0.843181 0.00152454 0.537627
vn -0.843023 -0.00388062 0.537864
vn -0.845814 -2.33191e-008 0.533478
vn -0.843425 -0.0123345 -0.537106
vn -0.841857 -0.00228685 -0.539696
vn -0.843181 -0.00152454 -0.537627
vn -0.845814 -0.533478 0
vn 0 0.550843 -0.834609
vn 0 0.54219 -0.840256
vn 0 0.539292 -0.842119
vn -0.0123347 -0.843425 -0.537106
vn 0.550844 0 -0.834609
vn 0.533478 0.845814 2.05531e-008
vn 0.533478 0.845814 0
vn -0.533478 0 -0.845814
# 48 normals
usemtl DodecahedronMat
f  5/1/1 3/2/2 4/3/3
f  3/2/2 5/1/1 2/4/4
f  2/4/4 5/1/1 1/5/5
f  1/5/6 12/6/7 2/4/8
f  12/6/7 1/5/6 11/7/9
f  10/8/10 11/7/9 1/5/6
f  10/8/11 8/9/12 9/10/13
f  8/9/12 10/8/11 5/1/14
f  5/1/14 10/8/11 1/5/15
f  5/1/16 7/11/17 8/9/17
f  7/11/17 5/1/16 6/12/18
f  4/3/19 6/12/18 5/1/16
f  4/3/20 3/2/21 6/12/22
f  14/13/23 6/12/22 3/2/21
f  15/14/24 6/12/22 14/13/23
f  2/4/25 14/13/26 3/2/25
f  14/13/26 2/4/25 13/15/27
f  12/6/27 13/15/27 2/4/25
f  13/15/28 12/16/29 20/17/30
f  11/18/31 20/17/30 12/16/29
f  19/19/32 20/17/30 11/18/31
f  14/13/33 13/15/33 15/14/34
f  20/17/35 15/14/34 13/15/33
f  16/20/36 15/14/34 20/17/35
f  17/21/37 7/11/38 16/20/39
f  6/12/40 16/20/39 7/11/38
f  16/20/39 6/12/40 15/14/40
f  18/22/41 9/23/42 17/21/43
f  8/24/44 17/21/43 9/23/42
f  7/11/44 17/21/43 8/24/44
f  9/10/45 11/7/45 10/8/45
f  11/7/45 9/10/45 19/25/46
f  18/26/47 19/25/46 9/10/45
f  16/20/48 20/17/48 17/21/48
f  19/19/48 17/21/48 20/17/48
f  18/22/48 17/21/48 19/19/48
