mtllib Octahedron.mtl
# object Octahedron
g Octahedron
v 0 -0.5 -2.18557e-008
v 0 -2.18557e-008 0.5
v 0.5 0 0
v 0 0.5 2.18557e-008
v 0 2.18557e-008 -0.5
v -0.5 0 0
# 6 verticies
vt 0.5 0.5
vt 0.75 0.5
vt 0.625 1
vt 0.625 0
vt 0.25 0.5
vt 0.375 0
vt 0.375 1
vt 0 0.5
vt 0.125 0
vt 1 0.5
vt 0.875 0
vt 0.875 1
vt 0.125 1
# 13 texture verticies
vn 0.57735 -0.57735 0.57735
vn 0.57735 -0.57735 -0.57735
vn -0.57735 -0.57735 -0.57735
vn -0.57735 0.57735 0.57735
vn -0.57735 -0.57735 0.57735
vn -0.57735 0.57735 -0.57735
vn 0.57735 0.57735 -0.57735
vn 0.57735 -0.57735 -0.57735
vn 0.57735 0.57735 0.57735
vn 0.57735 0.57735 -0.57735
vn -0.57735 0.57735 -0.57735
# 11 normals
usemtl OctahedronMat
f  1/1/1 3/2/1 2/3/1
f  1/1/2 5/4/2 3/2/2
f  1/1/3 6/5/3 5/6/3
f  1/1/4 2/7/5 6/5/5
f  4/8/6 5/9/6 6/5/6
f  4/10/7 3/2/7 5/11/8
f  4/10/9 2/12/9 3/2/10
f  4/8/11 6/5/11 2/13/11
