# 
# Wavefront OBJ file
# Converted by the DEEP Exploration Deep Exploration 5 5.0.5.1846 Release
# Right Hemisphere, LTD
# http://www.righthemisphere.com/
# 
mtllib Axes3D.mtl
# object XShaft
g XShaft
v 0.95120 0.00000 0.00000
v 0.95120 -0.00942 0.00252
v 0.95120 -0.00976 0.00000
v 0.95120 -0.00844 0.00488
v 0.95120 -0.00690 0.00690
v 0.95120 -0.00488 0.00844
v 0.95120 -0.00252 0.00942
v 0.95120 0.00000 0.00976
v 0.95120 0.00252 0.00942
v 0.95120 0.00488 0.00844
v 0.95120 0.00690 0.00690
v 0.95120 0.00844 0.00488
v 0.95120 0.00942 0.00252
v 0.95120 0.00976 0.00000
v 0.95120 0.00942 -0.00252
v 0.95120 0.00844 -0.00488
v 0.95120 0.00690 -0.00690
v 0.95120 0.00488 -0.00844
v 0.95120 0.00252 -0.00942
v 0.95120 0.00000 -0.00976
v 0.95120 -0.00252 -0.00942
v 0.95120 -0.00488 -0.00844
v 0.95120 -0.00690 -0.00690
v 0.95120 -0.00844 -0.00488
v 0.95120 -0.00942 -0.00252
v -1.00000 0.00000 0.00000
v -1.00000 -0.00976 0.00000
v -1.00000 -0.00942 0.00252
v -1.00000 -0.00844 0.00488
v -1.00000 -0.00690 0.00690
v -1.00000 -0.00488 0.00844
v -1.00000 -0.00252 0.00942
v -1.00000 0.00000 0.00976
v -1.00000 0.00252 0.00942
v -1.00000 0.00488 0.00844
v -1.00000 0.00690 0.00690
v -1.00000 0.00844 0.00488
v -1.00000 0.00942 0.00252
v -1.00000 0.00976 0.00000
v -1.00000 0.00942 -0.00252
v -1.00000 0.00844 -0.00488
v -1.00000 0.00690 -0.00690
v -1.00000 0.00488 -0.00844
v -1.00000 0.00252 -0.00942
v -1.00000 0.00000 -0.00976
v -1.00000 -0.00252 -0.00942
v -1.00000 -0.00488 -0.00844
v -1.00000 -0.00690 -0.00690
v -1.00000 -0.00844 -0.00488
v -1.00000 -0.00942 -0.00252
# 50 verticies
vn 1.00000 0.00000 0.00000
vn -1.00000 0.00000 0.00000
vn 0.00000 -0.99144 0.13059
vn 0.00000 -0.95365 0.30093
vn 0.00000 -0.97634 0.21626
vn 0.00000 -0.84328 0.53748
vn 0.00000 -0.88712 0.46154
vn 0.00000 -0.67542 0.73743
vn 0.00000 -0.73743 0.67542
vn 0.00000 -0.46155 0.88712
vn 0.00000 -0.53748 0.84328
vn 0.00000 -0.21623 0.97634
vn 0.00000 -0.30092 0.95365
vn 0.00000 0.04384 0.99904
vn 0.00000 -0.04384 0.99904
vn 0.00000 0.30092 0.95365
vn 0.00000 0.21622 0.97634
vn 0.00000 0.53748 0.84327
vn 0.00000 0.46155 0.88712
vn 0.00000 0.73743 0.67542
vn 0.00000 0.67542 0.73743
vn 0.00000 0.88712 0.46155
vn 0.00000 0.84327 0.53748
vn 0.00000 0.97634 0.21622
vn 0.00000 0.95365 0.30092
vn 0.00000 0.99904 -0.04384
vn 0.00000 0.99904 0.04384
vn 0.00000 0.95365 -0.30092
vn 0.00000 0.97634 -0.21623
vn 0.00000 0.84328 -0.53748
vn 0.00000 0.88712 -0.46155
vn 0.00000 0.67542 -0.73743
vn 0.00000 0.73743 -0.67542
vn 0.00000 0.46154 -0.88712
vn 0.00000 0.53748 -0.84328
vn 0.00000 0.21626 -0.97634
vn 0.00000 0.30093 -0.95365
vn 0.00000 -0.04387 -0.99904
vn 0.00000 0.04387 -0.99904
vn 0.00000 -0.30093 -0.95365
vn 0.00000 -0.21626 -0.97634
vn 0.00000 -0.53747 -0.84328
vn 0.00000 -0.46154 -0.88712
vn 0.00000 -0.73743 -0.67542
vn 0.00000 -0.67542 -0.73743
vn 0.00000 -0.88712 -0.46154
vn 0.00000 -0.84328 -0.53747
vn 0.00000 -0.97634 -0.21626
vn 0.00000 -0.95365 -0.30093
vn 0.00000 -0.99144 -0.13059
# 50 normals
usemtl Material__2
f  1//1 2//1 3//1
f  1//1 4//1 2//1
f  1//1 5//1 4//1
f  1//1 6//1 5//1
f  1//1 7//1 6//1
f  1//1 8//1 7//1
f  1//1 9//1 8//1
f  1//1 10//1 9//1
f  1//1 11//1 10//1
f  1//1 12//1 11//1
f  1//1 13//1 12//1
f  1//1 14//1 13//1
f  1//1 15//1 14//1
f  1//1 16//1 15//1
f  1//1 17//1 16//1
f  1//1 18//1 17//1
f  1//1 19//1 18//1
f  1//1 20//1 19//1
f  1//1 21//1 20//1
f  1//1 22//1 21//1
f  1//1 23//1 22//1
f  1//1 24//1 23//1
f  1//1 25//1 24//1
f  1//1 3//1 25//1
f  26//2 27//2 28//2
f  26//2 28//2 29//2
f  26//2 29//2 30//2
f  26//2 30//2 31//2
f  26//2 31//2 32//2
f  26//2 32//2 33//2
f  26//2 33//2 34//2
f  26//2 34//2 35//2
f  26//2 35//2 36//2
f  26//2 36//2 37//2
f  26//2 37//2 38//2
f  26//2 38//2 39//2
f  26//2 39//2 40//2
f  26//2 40//2 41//2
f  26//2 41//2 42//2
f  26//2 42//2 43//2
f  26//2 43//2 44//2
f  26//2 44//2 45//2
f  26//2 45//2 46//2
f  26//2 46//2 47//2
f  26//2 47//2 48//2
f  26//2 48//2 49//2
f  26//2 49//2 50//2
f  26//2 50//2 27//2
f  3//3 2//4 28//5
f  28//5 27//3 3//3
f  2//4 4//6 29//7
f  29//7 28//5 2//4
f  4//6 5//8 30//9
f  30//9 29//7 4//6
f  5//8 6//10 31//11
f  31//11 30//9 5//8
f  6//10 7//12 32//13
f  32//13 31//11 6//10
f  7//12 8//14 33//15
f  33//15 32//13 7//12
f  8//14 9//16 34//17
f  34//17 33//15 8//14
f  9//16 10//18 35//19
f  35//19 34//17 9//16
f  10//18 11//20 36//21
f  36//21 35//19 10//18
f  11//20 12//22 37//23
f  37//23 36//21 11//20
f  12//22 13//24 38//25
f  38//25 37//23 12//22
f  13//24 14//26 39//27
f  39//27 38//25 13//24
f  14//26 15//28 40//29
f  40//29 39//27 14//26
f  15//28 16//30 41//31
f  41//31 40//29 15//28
f  16//30 17//32 42//33
f  42//33 41//31 16//30
f  17//32 18//34 43//35
f  43//35 42//33 17//32
f  18//34 19//36 44//37
f  44//37 43//35 18//34
f  19//36 20//38 45//39
f  45//39 44//37 19//36
f  20//38 21//40 46//41
f  46//41 45//39 20//38
f  21//40 22//42 47//43
f  47//43 46//41 21//40
f  22//42 23//44 48//45
f  48//45 47//43 22//42
f  23//44 24//46 49//47
f  49//47 48//45 23//44
f  24//46 25//48 50//49
f  50//49 49//47 24//46
f  25//48 3//50 27//50
f  27//50 50//49 25//48
# object XCap
g XCap
v 0.90240 -0.04878 0.00000
v 1.00000 0.00000 0.00000
v 0.90240 -0.04712 0.01262
v 0.90240 -0.04224 0.02440
v 0.90240 -0.03450 0.03450
v 0.90240 -0.02440 0.04224
v 0.90240 -0.01262 0.04712
v 0.90240 0.00000 0.04878
v 0.90240 0.01262 0.04712
v 0.90240 0.02440 0.04224
v 0.90240 0.03450 0.03450
v 0.90240 0.04224 0.02440
v 0.90240 0.04712 0.01262
v 0.90240 0.04878 0.00000
v 0.90240 0.04712 -0.01262
v 0.90240 0.04224 -0.02440
v 0.90240 0.03450 -0.03450
v 0.90240 0.02440 -0.04224
v 0.90240 0.01262 -0.04712
v 0.90240 0.00000 -0.04878
v 0.90240 -0.01262 -0.04712
v 0.90240 -0.02440 -0.04224
v 0.90240 -0.03450 -0.03450
v 0.90240 -0.04224 -0.02440
v 0.90240 -0.04712 -0.01262
v 0.90240 0.00000 0.00000
# 26 verticies
vn 0.44709 -0.89449 0.00000
vn 0.45957 -0.88814 0.00000
vn 0.44709 -0.86401 0.23151
vn 0.44709 -0.77465 0.44725
vn 0.76419 0.51171 0.39265
vn 0.44709 -0.63250 0.63250
vn 0.68080 0.58111 0.44589
vn 0.44709 -0.44725 0.77465
vn 0.44709 -0.23151 0.86401
vn 0.44709 0.00000 0.89449
vn 0.44709 0.23151 0.86401
vn 0.44709 0.44725 0.77465
vn 0.44709 0.63250 0.63250
vn 0.44709 0.77465 0.44725
vn 0.44709 0.86401 0.23151
vn 0.44709 0.89449 0.00000
vn 0.44709 0.86401 -0.23151
vn 0.44709 0.77465 -0.44725
vn 0.44402 0.71086 -0.54546
vn 0.44402 0.54546 -0.71085
vn 0.44402 0.34289 -0.82781
vn 0.44402 0.11696 -0.88835
vn 0.44402 -0.11696 -0.88835
vn 0.44402 -0.34289 -0.82781
vn 0.44402 -0.54546 -0.71086
vn 0.44402 -0.71086 -0.54546
vn 0.44402 -0.82781 -0.34289
vn 0.44402 -0.88835 -0.11696
vn -1.00000 0.00000 0.00000
# 29 normals
f  51//51 52//52 53//53
f  53//53 52//52 54//54
f  54//54 52//55 55//56
f  55//56 52//57 56//58
f  56//58 52//55 57//59
f  57//59 52//57 58//60
f  58//60 52//55 59//61
f  59//61 52//57 60//62
f  60//62 52//55 61//63
f  61//63 52//57 62//64
f  62//64 52//55 63//65
f  63//65 52//57 64//66
f  64//66 52//55 65//67
f  65//67 52//57 66//68
f  66//68 52//55 67//69
f  67//70 52//57 68//70
f  68//71 52//55 69//71
f  69//72 52//72 70//72
f  70//73 52//73 71//73
f  71//74 52//74 72//74
f  72//75 52//75 73//75
f  73//76 52//76 74//76
f  74//77 52//52 75//77
f  75//78 52//52 51//51
f  76//79 51//79 53//79
f  76//79 53//79 54//79
f  76//79 54//79 55//79
f  76//79 55//79 56//79
f  76//79 56//79 57//79
f  76//79 57//79 58//79
f  76//79 58//79 59//79
f  76//79 59//79 60//79
f  76//79 60//79 61//79
f  76//79 61//79 62//79
f  76//79 62//79 63//79
f  76//79 63//79 64//79
f  76//79 64//79 65//79
f  76//79 65//79 66//79
f  76//79 66//79 67//79
f  76//79 67//79 68//79
f  76//79 68//79 69//79
f  76//79 69//79 70//79
f  76//79 70//79 71//79
f  76//79 71//79 72//79
f  76//79 72//79 73//79
f  76//79 73//79 74//79
f  76//79 74//79 75//79
f  76//79 75//79 51//79
# object ZShaft
g ZShaft
v 0.00000 0.00000 0.95122
v -0.00260 -0.00942 0.95122
v 0.00000 -0.00976 0.95122
v -0.00480 -0.00844 0.95122
v -0.00680 -0.00690 0.95122
v -0.00840 -0.00488 0.95122
v -0.00940 -0.00252 0.95122
v -0.00980 0.00000 0.95122
v -0.00940 0.00252 0.95122
v -0.00840 0.00488 0.95122
v -0.00680 0.00690 0.95122
v -0.00480 0.00844 0.95122
v -0.00260 0.00942 0.95122
v 0.00000 0.00976 0.95122
v 0.00260 0.00942 0.95122
v 0.00480 0.00844 0.95122
v 0.00680 0.00690 0.95122
v 0.00840 0.00488 0.95122
v 0.00940 0.00252 0.95122
v 0.00980 0.00000 0.95122
v 0.00940 -0.00252 0.95122
v 0.00840 -0.00488 0.95122
v 0.00680 -0.00690 0.95122
v 0.00480 -0.00844 0.95122
v 0.00260 -0.00942 0.95122
v 0.00000 0.00000 -1.00000
v 0.00000 -0.00976 -1.00000
v -0.00260 -0.00942 -1.00000
v -0.00480 -0.00844 -1.00000
v -0.00680 -0.00690 -1.00000
v -0.00840 -0.00488 -1.00000
v -0.00940 -0.00252 -1.00000
v -0.00980 0.00000 -1.00000
v -0.00940 0.00252 -1.00000
v -0.00840 0.00488 -1.00000
v -0.00680 0.00690 -1.00000
v -0.00480 0.00844 -1.00000
v -0.00260 0.00942 -1.00000
v 0.00000 0.00976 -1.00000
v 0.00260 0.00942 -1.00000
v 0.00480 0.00844 -1.00000
v 0.00700 0.00690 -1.00000
v 0.00840 0.00488 -1.00000
v 0.00940 0.00252 -1.00000
v 0.00980 0.00000 -1.00000
v 0.00940 -0.00252 -1.00000
v 0.00840 -0.00488 -1.00000
v 0.00700 -0.00690 -1.00000
v 0.00480 -0.00844 -1.00000
v 0.00260 -0.00942 -1.00000
# 50 verticies
vn 0.00000 0.00000 1.00000
vn 0.00000 0.00000 -1.00000
vn -0.12718 -0.99188 0.00000
vn -0.31401 -0.94942 0.00000
vn -0.22118 -0.97523 0.00000
vn -0.54659 -0.83740 0.00000
vn -0.73137 -0.68198 0.00000
vn -0.67411 -0.73863 0.00000
vn -0.47620 -0.87934 0.00000
vn -0.88273 -0.46989 0.00000
vn -0.83638 -0.54816 0.00000
vn -0.83637 0.54816 0.00000
vn -0.67411 0.73863 0.00000
vn -0.73137 0.68198 0.00000
vn -0.88273 0.46989 0.00000
vn -0.47621 0.87933 0.00000
vn -0.54660 0.83739 0.00000
vn -0.22115 0.97524 0.00000
vn 0.04268 0.99909 0.00000
vn -0.04268 0.99909 0.00000
vn -0.31400 0.94942 0.00000
vn 0.31563 0.94888 0.00000
vn 0.22197 0.97505 0.00000
vn 0.22201 -0.97504 0.00000
vn 0.12718 -0.99188 0.00000
vn 0.31564 -0.94888 0.00000
vn 0.53262 0.84635 0.00002
vn 0.74697 0.66485 0.00005
vn 0.67788 0.73518 0.00005
vn 0.46354 0.88608 0.00000
vn 0.88172 0.47177 0.00000
vn 0.84856 0.52910 0.00003
vn 0.84856 -0.52910 0.00003
vn 0.66228 -0.74925 0.00005
vn 0.73707 -0.67582 0.00005
vn 0.89148 -0.45307 0.00000
vn 0.47664 -0.87910 0.00000
vn 0.53261 -0.84636 0.00002
vn -0.97212 -0.23449 0.00000
vn -0.94984 -0.31273 0.00000
vn -0.99863 0.05230 0.00000
vn -0.99863 -0.05230 0.00000
vn -0.94984 0.31273 0.00000
vn -0.97212 0.23449 0.00000
vn 0.97169 0.23625 0.00000
vn 0.94869 0.31622 0.00000
vn 0.99863 -0.05230 0.00000
vn 0.99863 0.05230 0.00000
vn 0.94869 -0.31622 0.00000
vn 0.97169 -0.23625 0.00000
# 50 normals
usemtl Material__1
f  77//80 78//80 79//80
f  77//80 80//80 78//80
f  77//80 81//80 80//80
f  77//80 82//80 81//80
f  77//80 83//80 82//80
f  77//80 84//80 83//80
f  77//80 85//80 84//80
f  77//80 86//80 85//80
f  77//80 87//80 86//80
f  77//80 88//80 87//80
f  77//80 89//80 88//80
f  77//80 90//80 89//80
f  77//80 91//80 90//80
f  77//80 92//80 91//80
f  77//80 93//80 92//80
f  77//80 94//80 93//80
f  77//80 95//80 94//80
f  77//80 96//80 95//80
f  77//80 97//80 96//80
f  77//80 98//80 97//80
f  77//80 99//80 98//80
f  77//80 100//80 99//80
f  77//80 101//80 100//80
f  77//80 79//80 101//80
f  102//81 103//81 104//81
f  102//81 104//81 105//81
f  102//81 105//81 106//81
f  102//81 106//81 107//81
f  102//81 107//81 108//81
f  102//81 108//81 109//81
f  102//81 109//81 110//81
f  102//81 110//81 111//81
f  102//81 111//81 112//81
f  102//81 112//81 113//81
f  102//81 113//81 114//81
f  102//81 114//81 115//81
f  102//81 115//81 116//81
f  102//81 116//81 117//81
f  102//81 117//81 118//81
f  102//81 118//81 119//81
f  102//81 119//81 120//81
f  102//81 120//81 121//81
f  102//81 121//81 122//81
f  102//81 122//81 123//81
f  102//81 123//81 124//81
f  102//81 124//81 125//81
f  102//81 125//81 126//81
f  102//81 126//81 103//81
f  79//82 78//83 104//84
f  104//84 103//82 79//82
f  80//85 81//86 106//87
f  106//87 105//88 80//85
f  81//86 82//89 107//90
f  107//90 106//87 81//86
f  86//91 87//92 112//93
f  112//93 111//94 86//91
f  87//92 88//95 113//96
f  113//96 112//93 87//92
f  89//97 90//98 115//99
f  115//99 114//100 89//97
f  90//98 91//101 116//102
f  116//102 115//99 90//98
f  101//103 79//104 103//104
f  103//104 126//105 101//103
f  92//106 93//107 118//108
f  118//108 117//109 92//106
f  93//107 94//110 119//111
f  119//111 118//108 93//107
f  98//112 99//113 124//114
f  124//114 123//115 98//112
f  99//113 100//116 125//117
f  125//117 124//114 99//113
f  78//83 80//85 105//88
f  105//88 104//84 78//83
f  82//89 83//118 108//119
f  108//119 107//90 82//89
f  83//118 84//120 109//121
f  109//121 108//119 83//118
f  84//120 85//122 110//123
f  110//123 109//121 84//120
f  85//122 86//91 111//94
f  111//94 110//123 85//122
f  88//95 89//97 114//100
f  114//100 113//96 88//95
f  91//101 92//106 117//109
f  117//109 116//102 91//101
f  94//110 95//124 120//125
f  120//125 119//111 94//110
f  95//124 96//126 121//127
f  121//127 120//125 95//124
f  96//126 97//128 122//129
f  122//129 121//127 96//126
f  97//128 98//112 123//115
f  123//115 122//129 97//128
f  100//116 101//103 126//105
f  126//105 125//117 100//116
# object ZCap
g ZCap
v 0.00000 -0.04878 0.90244
v 0.00000 0.00000 1.00000
v -0.01260 -0.04712 0.90244
v -0.02440 -0.04224 0.90244
v -0.03440 -0.03450 0.90244
v -0.04220 -0.02440 0.90244
v -0.04720 -0.01262 0.90244
v -0.04880 0.00000 0.90244
v -0.04720 0.01262 0.90244
v -0.04220 0.02440 0.90244
v -0.03440 0.03450 0.90244
v -0.02440 0.04224 0.90244
v -0.01260 0.04712 0.90244
v 0.00000 0.04878 0.90244
v 0.01260 0.04712 0.90244
v 0.02440 0.04224 0.90244
v 0.03460 0.03450 0.90244
v 0.04220 0.02440 0.90244
v 0.04720 0.01262 0.90244
v 0.04880 0.00000 0.90244
v 0.04720 -0.01262 0.90244
v 0.04220 -0.02440 0.90244
v 0.03460 -0.03450 0.90244
v 0.02440 -0.04224 0.90244
v 0.01260 -0.04712 0.90244
v 0.00000 0.00000 0.90244
# 26 verticies
vn 0.00000 -0.89442 0.44722
vn 0.00000 -0.88811 0.45963
vn -0.23121 -0.86405 0.44718
vn -0.44859 -0.77378 0.44725
vn -0.39323 0.51184 0.76380
vn -0.63314 -0.63207 0.44678
vn -0.44499 0.58136 0.68118
vn -0.77218 -0.45163 0.44696
vn -0.86325 -0.23305 0.44776
vn -0.89436 0.00000 0.44734
vn -0.86325 0.23305 0.44776
vn -0.77218 0.45163 0.44696
vn -0.63314 0.63208 0.44678
vn -0.44859 0.77378 0.44725
vn -0.23120 0.86405 0.44718
vn 0.00000 0.89443 0.44722
vn 0.23120 0.86405 0.44718
vn 0.44519 0.77574 0.44725
vn 0.54230 0.71304 0.44438
vn 0.71544 0.53920 0.44431
vn 0.82479 0.34980 0.44426
vn 0.88866 0.11277 0.44449
vn 0.88866 -0.11277 0.44449
vn 0.82478 -0.34980 0.44426
vn 0.71544 -0.53920 0.44431
vn 0.54230 -0.71304 0.44439
vn 0.34212 -0.82807 0.44413
vn 0.11715 -0.88827 0.44414
vn 0.00000 0.00000 -1.00000
# 29 normals
f  127//130 128//131 129//132
f  129//132 128//131 130//133
f  130//133 128//134 131//135
f  131//135 128//136 132//137
f  132//137 128//134 133//138
f  133//138 128//136 134//139
f  134//139 128//134 135//140
f  135//140 128//136 136//141
f  136//141 128//134 137//142
f  137//142 128//136 138//143
f  138//143 128//134 139//144
f  139//144 128//136 140//145
f  140//145 128//134 141//146
f  141//146 128//136 142//147
f  142//147 128//134 143//148
f  143//149 128//136 144//149
f  144//150 128//134 145//150
f  145//151 128//151 146//151
f  146//152 128//152 147//152
f  147//153 128//153 148//153
f  148//154 128//154 149//154
f  149//155 128//155 150//155
f  150//156 128//131 151//156
f  151//157 128//131 127//130
f  152//158 127//158 129//158
f  152//158 129//158 130//158
f  152//158 130//158 131//158
f  152//158 131//158 132//158
f  152//158 132//158 133//158
f  152//158 133//158 134//158
f  152//158 134//158 135//158
f  152//158 135//158 136//158
f  152//158 136//158 137//158
f  152//158 137//158 138//158
f  152//158 138//158 139//158
f  152//158 139//158 140//158
f  152//158 140//158 141//158
f  152//158 141//158 142//158
f  152//158 142//158 143//158
f  152//158 143//158 144//158
f  152//158 144//158 145//158
f  152//158 145//158 146//158
f  152//158 146//158 147//158
f  152//158 147//158 148//158
f  152//158 148//158 149//158
f  152//158 149//158 150//158
f  152//158 150//158 151//158
f  152//158 151//158 127//158
# object YShaft
g YShaft
v 0.00000 0.95122 0.00000
v 0.00940 0.95122 0.00252
v 0.00980 0.95122 0.00000
v 0.00840 0.95122 0.00488
v 0.00680 0.95122 0.00690
v 0.00480 0.95122 0.00844
v 0.00260 0.95122 0.00942
v 0.00000 0.95122 0.00976
v -0.00260 0.95122 0.00942
v -0.00480 0.95122 0.00844
v -0.00680 0.95122 0.00690
v -0.00840 0.95122 0.00488
v -0.00940 0.95122 0.00252
v -0.00980 0.95122 0.00000
v -0.00940 0.95122 -0.00252
v -0.00840 0.95122 -0.00488
v -0.00680 0.95122 -0.00690
v -0.00480 0.95122 -0.00844
v -0.00260 0.95122 -0.00942
v 0.00000 0.95122 -0.00976
v 0.00260 0.95122 -0.00942
v 0.00480 0.95122 -0.00844
v 0.00680 0.95122 -0.00690
v 0.00840 0.95122 -0.00488
v 0.00940 0.95122 -0.00252
v 0.00000 -1.00000 0.00000
v 0.00980 -1.00000 0.00000
v 0.00940 -1.00000 0.00252
v 0.00840 -1.00000 0.00488
v 0.00700 -1.00000 0.00690
v 0.00480 -1.00000 0.00844
v 0.00260 -1.00000 0.00942
v 0.00000 -1.00000 0.00976
v -0.00260 -1.00000 0.00942
v -0.00480 -1.00000 0.00844
v -0.00680 -1.00000 0.00690
v -0.00840 -1.00000 0.00488
v -0.00940 -1.00000 0.00252
v -0.00980 -1.00000 0.00000
v -0.00940 -1.00000 -0.00252
v -0.00840 -1.00000 -0.00488
v -0.00680 -1.00000 -0.00690
v -0.00480 -1.00000 -0.00844
v -0.00260 -1.00000 -0.00942
v 0.00000 -1.00000 -0.00976
v 0.00260 -1.00000 -0.00942
v 0.00480 -1.00000 -0.00844
v 0.00700 -1.00000 -0.00690
v 0.00840 -1.00000 -0.00488
v 0.00940 -1.00000 -0.00252
# 50 verticies
vn 0.00000 1.00000 0.00000
vn 0.00000 -1.00000 0.00000
vn 0.22197 0.00000 0.97505
vn -0.04268 0.00000 0.99909
vn 0.04268 0.00000 0.99909
vn 0.31563 0.00000 0.94888
vn -0.31400 0.00000 0.94942
vn -0.22115 0.00000 0.97524
vn -0.54660 0.00000 0.83739
vn -0.73137 0.00000 0.68198
vn -0.67411 0.00000 0.73863
vn -0.47621 0.00000 0.87933
vn -0.88273 0.00000 0.46989
vn -0.83637 0.00000 0.54816
vn -0.83638 0.00000 -0.54816
vn -0.67411 0.00000 -0.73863
vn -0.73137 0.00000 -0.68198
vn -0.88273 0.00000 -0.46989
vn -0.47620 0.00000 -0.87934
vn -0.54659 0.00000 -0.83740
vn -0.22118 0.00000 -0.97523
vn 0.04270 0.00000 -0.99909
vn -0.04270 0.00000 -0.99909
vn -0.31401 0.00000 -0.94942
vn 0.31564 0.00000 -0.94888
vn 0.22201 0.00000 -0.97504
vn 0.84856 0.00003 0.52910
vn 0.66228 0.00005 0.74925
vn 0.73706 0.00005 0.67582
vn 0.89148 0.00000 0.45307
vn 0.47665 0.00000 0.87909
vn 0.53262 0.00002 0.84635
vn 0.53261 0.00002 -0.84636
vn 0.74698 0.00005 -0.66485
vn 0.67788 0.00005 -0.73518
vn 0.46352 0.00000 -0.88609
vn 0.88172 0.00000 -0.47177
vn 0.84856 0.00003 -0.52910
vn 0.98788 0.00000 0.15522
vn 0.94869 0.00000 0.31622
vn 0.97169 0.00000 0.23625
vn -0.97212 0.00000 0.23449
vn -0.94984 0.00000 0.31273
vn -0.99863 0.00000 -0.05230
vn -0.99863 0.00000 0.05230
vn -0.94984 0.00000 -0.31273
vn -0.97212 0.00000 -0.23449
vn 0.97169 0.00000 -0.23625
vn 0.94869 0.00000 -0.31622
vn 0.98788 0.00000 -0.15522
# 50 normals
usemtl Material__3
f  153//159 154//159 155//159
f  153//159 156//159 154//159
f  153//159 157//159 156//159
f  153//159 158//159 157//159
f  153//159 159//159 158//159
f  153//159 160//159 159//159
f  153//159 161//159 160//159
f  153//159 162//159 161//159
f  153//159 163//159 162//159
f  153//159 164//159 163//159
f  153//159 165//159 164//159
f  153//159 166//159 165//159
f  153//159 167//159 166//159
f  153//159 168//159 167//159
f  153//159 169//159 168//159
f  153//159 170//159 169//159
f  153//159 171//159 170//159
f  153//159 172//159 171//159
f  153//159 173//159 172//159
f  153//159 174//159 173//159
f  153//159 175//159 174//159
f  153//159 176//159 175//159
f  153//159 177//159 176//159
f  153//159 155//159 177//159
f  178//160 179//160 180//160
f  178//160 180//160 181//160
f  178//160 181//160 182//160
f  178//160 182//160 183//160
f  178//160 183//160 184//160
f  178//160 184//160 185//160
f  178//160 185//160 186//160
f  178//160 186//160 187//160
f  178//160 187//160 188//160
f  178//160 188//160 189//160
f  178//160 189//160 190//160
f  178//160 190//160 191//160
f  178//160 191//160 192//160
f  178//160 192//160 193//160
f  178//160 193//160 194//160
f  178//160 194//160 195//160
f  178//160 195//160 196//160
f  178//160 196//160 197//160
f  178//160 197//160 198//160
f  178//160 198//160 199//160
f  178//160 199//160 200//160
f  178//160 200//160 201//160
f  178//160 201//160 202//160
f  178//160 202//160 179//160
f  159//161 160//162 185//163
f  185//163 184//164 159//161
f  160//162 161//165 186//166
f  186//166 185//163 160//162
f  162//167 163//168 188//169
f  188//169 187//170 162//167
f  163//168 164//171 189//172
f  189//172 188//169 163//168
f  168//173 169//174 194//175
f  194//175 193//176 168//173
f  169//174 170//177 195//178
f  195//178 194//175 169//174
f  171//179 172//180 197//181
f  197//181 196//182 171//179
f  172//180 173//183 198//184
f  198//184 197//181 172//180
f  156//185 157//186 182//187
f  182//187 181//188 156//185
f  157//186 158//189 183//190
f  183//190 182//187 157//186
f  174//191 175//192 200//193
f  200//193 199//194 174//191
f  175//192 176//195 201//196
f  201//196 200//193 175//192
f  155//197 154//198 180//199
f  180//199 179//197 155//197
f  154//198 156//185 181//188
f  181//188 180//199 154//198
f  158//189 159//161 184//164
f  184//164 183//190 158//189
f  161//165 162//167 187//170
f  187//170 186//166 161//165
f  164//171 165//200 190//201
f  190//201 189//172 164//171
f  165//200 166//202 191//203
f  191//203 190//201 165//200
f  166//202 167//204 192//205
f  192//205 191//203 166//202
f  167//204 168//173 193//176
f  193//176 192//205 167//204
f  170//177 171//179 196//182
f  196//182 195//178 170//177
f  173//183 174//191 199//194
f  199//194 198//184 173//183
f  176//195 177//206 202//207
f  202//207 201//196 176//195
f  177//206 155//208 179//208
f  179//208 202//207 177//206
# object YCap
g YCap
v 0.04880 0.90244 0.00000
v 0.00000 1.00000 0.00000
v 0.04720 0.90244 0.01262
v 0.04220 0.90244 0.02440
v 0.03460 0.90244 0.03450
v 0.02440 0.90244 0.04224
v 0.01260 0.90244 0.04712
v 0.00000 0.90244 0.04878
v -0.01260 0.90244 0.04712
v -0.02440 0.90244 0.04224
v -0.03440 0.90244 0.03450
v -0.04220 0.90244 0.02440
v -0.04720 0.90244 0.01262
v -0.04880 0.90244 0.00000
v -0.04720 0.90244 -0.01262
v -0.04220 0.90244 -0.02440
v -0.03440 0.90244 -0.03450
v -0.02440 0.90244 -0.04224
v -0.01260 0.90244 -0.04712
v 0.00000 0.90244 -0.04878
v 0.01260 0.90244 -0.04712
v 0.02440 0.90244 -0.04224
v 0.03460 0.90244 -0.03450
v 0.04220 0.90244 -0.02440
v 0.04720 0.90244 -0.01262
v 0.00000 0.90244 0.00000
# 26 verticies
vn 0.89436 0.44734 0.00000
vn 0.88769 0.46044 0.00000
vn 0.86325 0.44776 0.23305
vn 0.77476 0.44697 0.44718
vn -0.51076 0.76472 0.39286
vn 0.63366 0.44773 0.63089
vn -0.58143 0.68110 0.44501
vn 0.44519 0.44725 0.77574
vn 0.23120 0.44718 0.86405
vn 0.00000 0.44722 0.89443
vn -0.23120 0.44718 0.86405
vn -0.44859 0.44725 0.77378
vn -0.63314 0.44678 0.63208
vn -0.77218 0.44696 0.45163
vn -0.86325 0.44776 0.23305
vn -0.89436 0.44734 0.00000
vn -0.86325 0.44776 -0.23305
vn -0.77218 0.44696 -0.45163
vn -0.70942 0.44379 -0.54752
vn -0.54865 0.44397 -0.70843
vn -0.34212 0.44413 -0.82807
vn -0.11715 0.44414 -0.88827
vn 0.11715 0.44414 -0.88827
vn 0.34212 0.44413 -0.82807
vn 0.54230 0.44439 -0.71304
vn 0.71544 0.44431 -0.53920
vn 0.82479 0.44426 -0.34980
vn 0.88866 0.44449 -0.11277
vn 0.00000 -1.00000 0.00000
# 29 normals
f  203//209 204//210 205//211
f  205//211 204//210 206//212
f  206//212 204//213 207//214
f  207//214 204//215 208//216
f  208//216 204//213 209//217
f  209//217 204//215 210//218
f  210//218 204//213 211//219
f  211//219 204//215 212//220
f  212//220 204//213 213//221
f  213//221 204//215 214//222
f  214//222 204//213 215//223
f  215//223 204//215 216//224
f  216//224 204//213 217//225
f  217//225 204//215 218//226
f  218//226 204//213 219//227
f  219//228 204//215 220//228
f  220//229 204//213 221//229
f  221//230 204//230 222//230
f  222//231 204//231 223//231
f  223//232 204//232 224//232
f  224//233 204//233 225//233
f  225//234 204//234 226//234
f  226//235 204//210 227//235
f  227//236 204//210 203//209
f  228//237 203//237 205//237
f  228//237 205//237 206//237
f  228//237 206//237 207//237
f  228//237 207//237 208//237
f  228//237 208//237 209//237
f  228//237 209//237 210//237
f  228//237 210//237 211//237
f  228//237 211//237 212//237
f  228//237 212//237 213//237
f  228//237 213//237 214//237
f  228//237 214//237 215//237
f  228//237 215//237 216//237
f  228//237 216//237 217//237
f  228//237 217//237 218//237
f  228//237 218//237 219//237
f  228//237 219//237 220//237
f  228//237 220//237 221//237
f  228//237 221//237 222//237
f  228//237 222//237 223//237
f  228//237 223//237 224//237
f  228//237 224//237 225//237
f  228//237 225//237 226//237
f  228//237 226//237 227//237
f  228//237 227//237 203//237
